<?xml version="1.0" encoding="UTF-8"?>
<svg version="1.1" xmlns="http://www.w3.org/2000/svg" width="500" height="500">
<path d="M0 0 C165 0 330 0 500 0 C500 165 500 330 500 500 C335 500 170 500 0 500 C0 335 0 170 0 0 Z " fill="#F6F6F6" transform="translate(0,0)"/>
<path d="M0 0 C1.07636719 -0.00257812 2.15273438 -0.00515625 3.26171875 -0.0078125 C6.06098136 0.1140504 8.5895603 0.48846864 11.3125 1.125 C11.99178711 19.13868793 9.46797144 36.17913369 3.3125 53.125 C2.920625 54.20394531 2.52875 55.28289062 2.125 56.39453125 C-5.53702264 76.02846427 -19.57784628 91.61692932 -37.6875 102.125 C-38.55503906 102.63933594 -39.42257812 103.15367187 -40.31640625 103.68359375 C-57.56475529 113.1297024 -77.31771041 116.125 -96.6875 116.125 C-96.3575 125.695 -96.0275 135.265 -95.6875 145.125 C-91.0159375 145.49625 -91.0159375 145.49625 -86.25 145.875 C-60.00725084 148.25736678 -36.65201361 156.22499154 -17.6875 175.125 C-16.92953125 175.85976563 -16.1715625 176.59453125 -15.390625 177.3515625 C4.15990527 197.50883336 11.35438673 227.69101976 11.4453125 254.96875 C11.31169642 257.13804631 10.86499987 259.02912164 10.3125 261.125 C-19.4981912 262.17981488 -48.78200446 256.6709754 -71.6875 236.125 C-72.59371094 235.31289063 -73.49992188 234.50078125 -74.43359375 233.6640625 C-84.20766212 224.41868854 -90.20033742 214.4711158 -95.6875 202.125 C-96.0175 220.935 -96.3475 239.745 -96.6875 259.125 C-102.9575 259.125 -109.2275 259.125 -115.6875 259.125 C-116.0175 214.575 -116.3475 170.025 -116.6875 124.125 C-124.2775 123.795 -131.8675 123.465 -139.6875 123.125 C-148.68500125 118.62624938 -148.68500125 118.62624938 -150.953125 115.8125 C-151.45070313 115.21179688 -151.94828125 114.61109375 -152.4609375 113.9921875 C-152.94820313 113.37601562 -153.43546875 112.75984375 -153.9375 112.125 C-154.94130911 110.89469038 -155.94648546 109.66549484 -156.953125 108.4375 C-157.41783203 107.86515625 -157.88253906 107.2928125 -158.36132812 106.703125 C-160.02468018 104.72376055 -161.81606136 102.90732251 -163.6875 101.125 C-164.08453125 102.36636719 -164.4815625 103.60773438 -164.890625 104.88671875 C-166.13093507 108.61275613 -167.50948081 112.25512691 -168.984375 115.89453125 C-169.38527344 116.88517578 -169.78617187 117.87582031 -170.19921875 118.89648438 C-171.03378803 120.94604962 -171.8750834 122.99288731 -172.72265625 125.03710938 C-173.11839844 126.02130859 -173.51414062 127.00550781 -173.921875 128.01953125 C-174.46666504 129.34754761 -174.46666504 129.34754761 -175.02246094 130.70239258 C-176.15542335 134.82955339 -174.55437563 137.63945755 -172.74609375 141.3515625 C-172.33576904 142.20065186 -171.92544434 143.04974121 -171.50268555 143.92456055 C-171.04804932 144.85695557 -170.59341309 145.78935059 -170.125 146.75 C-166.6730344 153.88922679 -163.24700645 161.0380654 -159.890625 168.22265625 C-152.75070037 183.4977497 -145.52111662 198.70320766 -137.85229492 213.72143555 C-137.3029126 214.80336182 -136.75353027 215.88528809 -136.1875 217 C-135.7028125 217.94617188 -135.218125 218.89234375 -134.71875 219.8671875 C-133.6875 222.125 -133.6875 222.125 -133.6875 224.125 C-137.10409491 224.18316623 -140.52056205 224.21865195 -143.9375 224.25 C-145.38962891 224.27513672 -145.38962891 224.27513672 -146.87109375 224.30078125 C-148.27294922 224.31044922 -148.27294922 224.31044922 -149.703125 224.3203125 C-150.56196289 224.33078613 -151.42080078 224.34125977 -152.30566406 224.35205078 C-154.9828082 224.09684946 -156.46050105 223.63011404 -158.6875 222.125 C-163.54073291 215.74375214 -166.79496829 208.03734687 -170.1875 200.8125 C-171.22995077 198.61563955 -172.27294294 196.41903595 -173.31640625 194.22265625 C-173.86055176 193.0742627 -174.40469727 191.92586914 -174.96533203 190.74267578 C-176.76000681 186.96440631 -178.57888753 183.19804091 -180.40234375 179.43359375 C-180.71309845 178.79183701 -181.02385315 178.15008026 -181.34402466 177.48887634 C-182.56595098 174.96618396 -183.78831972 172.44370822 -185.01220703 169.92196655 C-195.6875 147.91770687 -195.6875 147.91770687 -195.6875 145.125 C-196.3475 145.125 -197.0075 145.125 -197.6875 145.125 C-197.80025269 146.73556274 -197.80025269 146.73556274 -197.9152832 148.37866211 C-198.19990569 152.39959126 -198.49995524 156.4192512 -198.80444336 160.4387207 C-198.93359082 162.17148949 -199.05867088 163.9045668 -199.17944336 165.63793945 C-199.35476604 168.14368297 -199.54516981 170.64791564 -199.73828125 173.15234375 C-199.78841873 173.91522202 -199.83855621 174.67810028 -199.89021301 175.46409607 C-200.38319173 181.56159109 -201.21496271 188.65246271 -205.6875 193.125 C-209.14620569 194.36900724 -212.55544398 194.24548102 -216.20019531 194.23852539 C-217.16667496 194.23874443 -217.16667496 194.23874443 -218.15267944 194.2389679 C-220.27369603 194.2382735 -222.39462383 194.23050336 -224.515625 194.22265625 C-225.98964388 194.22079039 -227.46366338 194.21936728 -228.93768311 194.21836853 C-232.81088992 194.21455661 -236.68405903 194.20473765 -240.55725098 194.19366455 C-244.51212046 194.18342193 -248.46699606 194.1788648 -252.421875 194.17382812 C-260.17710049 194.16311418 -267.93229496 194.14605369 -275.6875 194.125 C-274.62414588 187.39542159 -273.11384138 181.49216232 -268.125 176.625 C-264.81743174 174.58957338 -262.29926927 174.00003973 -258.49145508 174.01147461 C-257.65081009 174.01155014 -256.8101651 174.01162567 -255.94404602 174.01170349 C-255.04083115 174.01686478 -254.13761627 174.02202606 -253.20703125 174.02734375 C-252.27904221 174.0287587 -251.35105316 174.03017365 -250.39494324 174.03163147 C-247.42992942 174.03723063 -244.46499101 174.04978296 -241.5 174.0625 C-239.49023547 174.06751511 -237.48046975 174.072078 -235.47070312 174.07617188 C-230.54293968 174.08719979 -225.61523263 174.10446383 -220.6875 174.125 C-220.6373877 173.41706299 -220.58727539 172.70912598 -220.53564453 171.97973633 C-220.11867808 166.1266052 -219.68252043 160.27570781 -219.22265625 154.42578125 C-218.89136788 150.15000435 -218.62336634 145.89191357 -218.49609375 141.60546875 C-217.89327751 127.19369539 -212.85981958 115.21578651 -207.01660156 102.14306641 C-205.12470637 97.84703253 -203.40267989 93.49423787 -201.6875 89.125 C-208.2875 89.125 -214.8875 89.125 -221.6875 89.125 C-222.3475 91.105 -223.0075 93.085 -223.6875 95.125 C-225.20756617 98.44040128 -226.9237831 101.649316 -228.625 104.875 C-229.06779297 105.73738281 -229.51058594 106.59976563 -229.96679688 107.48828125 C-230.39927734 108.31199219 -230.83175781 109.13570313 -231.27734375 109.984375 C-231.66784912 110.73170898 -232.05835449 111.47904297 -232.46069336 112.24902344 C-233.6875 114.125 -233.6875 114.125 -236.6875 116.125 C-243.62964876 116.78615702 -243.62964876 116.78615702 -247.1875 114.5625 C-249.25118663 111.20900922 -248.98183402 109.02942572 -248.6875 105.125 C-247.42163086 101.85522461 -247.42163086 101.85522461 -245.65234375 98.52734375 C-245.33600479 97.92998917 -245.01966583 97.33263458 -244.69374084 96.71717834 C-244.02409623 95.46214713 -243.34715783 94.210983 -242.66333008 92.96362305 C-241.6316185 91.0746181 -240.63210815 89.17100025 -239.63476562 87.26367188 C-235.7978426 80.07211368 -232.21937769 73.89093885 -224.6875 70.125 C-222.91249013 70.01386744 -221.13337692 69.96578911 -219.35498047 69.94799805 C-218.2397702 69.93516281 -217.12455994 69.92232758 -215.97555542 69.90910339 C-214.1584758 69.89802299 -214.1584758 69.89802299 -212.3046875 69.88671875 C-210.43963058 69.87461113 -210.43963058 69.87461113 -208.53689575 69.86225891 C-205.89890813 69.848405 -203.26104601 69.83739361 -200.62304688 69.82983398 C-197.92652644 69.82099506 -195.23052488 69.80017488 -192.53417969 69.76831055 C-188.64502412 69.72560142 -184.75654861 69.70945696 -180.8671875 69.69921875 C-179.66794647 69.68171066 -178.46870544 69.66420258 -177.23312378 69.64616394 C-167.90979341 69.67021427 -161.67520843 71.64829745 -154.6875 78.125 C-153.03313887 80.12173719 -151.47055222 82.10385976 -149.9375 84.1875 C-149.07045357 85.34093 -148.20193257 86.49325285 -147.33203125 87.64453125 C-146.89584473 88.22283691 -146.4596582 88.80114258 -146.01025391 89.39697266 C-140.64024371 96.51717923 -140.64024371 96.51717923 -134.6875 103.125 C-128.4175 103.455 -122.1475 103.785 -115.6875 104.125 C-115.6875 70.465 -115.6875 36.805 -115.6875 2.125 C-109.4175 2.125 -103.1475 2.125 -96.6875 2.125 C-96.3575 20.935 -96.0275 39.745 -95.6875 59.125 C-92.2225 52.195 -92.2225 52.195 -88.6875 45.125 C-74.16954763 23.19684277 -52.15362467 8.65414631 -26.46875 3.19140625 C-17.70825361 1.44932469 -8.95070374 -0.02159398 0 0 Z " fill="#36394A" transform="translate(326.6875,118.875)"/>
<path d="M0 0 C5.57460591 4.63613683 10.61190647 9.22079814 15.13671875 14.90625 C-3.15884411 36.86092543 -27.93448272 52.16597137 -56.67578125 55.53125 C-86.3004271 57.98482496 -111.30085183 47.5686436 -133.86328125 28.90625 C-139.00573235 24.53412558 -143.73669429 20.26800584 -147.86328125 14.90625 C-139.24143939 5.7609911 -130.34040364 -2.13225323 -119.86328125 -9.09375 C-118.76628906 -9.82464844 -117.66929687 -10.55554688 -116.5390625 -11.30859375 C-78.61424307 -34.69182561 -33.5029186 -27.1458682 0 0 Z " fill="#28854A" transform="translate(433.86328125,233.09375)"/>
<path d="M0 0 C1.07636719 -0.00257812 2.15273438 -0.00515625 3.26171875 -0.0078125 C6.06098136 0.1140504 8.5895603 0.48846864 11.3125 1.125 C11.99178711 19.13868793 9.46797144 36.17913369 3.3125 53.125 C2.7246875 54.74341797 2.7246875 54.74341797 2.125 56.39453125 C-5.53702264 76.02846427 -19.57784628 91.61692932 -37.6875 102.125 C-38.55503906 102.63933594 -39.42257812 103.15367187 -40.31640625 103.68359375 C-55.13190585 111.79734531 -73.55110319 116.18428114 -90.39990234 116.13916016 C-91.39017426 116.13711578 -92.38044617 116.13507141 -93.40072632 116.13296509 C-94.53267929 116.12902237 -94.53267929 116.12902237 -95.6875 116.125 C-96.03650395 108.4259705 -96.31767556 100.72649131 -96.55419922 93.02319336 C-96.64218128 90.40903045 -96.74506642 87.79532121 -96.86376953 85.18237305 C-98.10050771 57.52489065 -98.10050771 57.52489065 -88.6875 45.125 C-88.19749512 44.38886475 -87.70749023 43.65272949 -87.20263672 42.89428711 C-72.61543285 21.30695168 -49.62376336 7.79593092 -24.33374023 2.7668457 C-16.25192082 1.24706595 -8.23946601 -0.01987808 0 0 Z " fill="#28854A" transform="translate(326.6875,118.875)"/>
<path d="M0 0 C3.48248478 0.28884468 6.96392938 0.58881435 10.4453125 0.890625 C11.42024658 0.97135254 12.39518066 1.05208008 13.3996582 1.13525391 C38.49752891 3.33774152 60.98450196 12.04577916 79 30 C80.13695312 31.10214844 80.13695312 31.10214844 81.296875 32.2265625 C100.84740527 52.38383336 108.04188673 82.56601976 108.1328125 109.84375 C107.99919642 112.01304631 107.55249987 113.90412164 107 116 C77.1893088 117.05481488 47.90549554 111.5459754 25 91 C24.09378906 90.18789063 23.18757813 89.37578125 22.25390625 88.5390625 C15.14419903 81.81393029 9.67974683 74.60366324 5 66 C4.65474777 65.39061081 4.30949554 64.78122162 3.95378113 64.15336609 C0.51174187 57.39076061 0.39828646 51.13742844 0.390625 43.65234375 C0.37408875 42.39990372 0.35755249 41.14746368 0.34051514 39.85707092 C0.30039116 36.5576208 0.27691667 33.25862531 0.26177979 29.95898438 C0.24208899 26.57992134 0.2001334 23.20113876 0.16015625 19.82226562 C0.08644226 13.21491278 0.03470479 6.60766676 0 0 Z " fill="#29854A" transform="translate(230,264)"/>
<path d="M0 0 C3.90422835 2.24054218 6.0211272 5.55541926 8.13671875 9.484375 C9.8193079 15.75584365 8.77477097 20.3565243 5.82421875 26.046875 C2.88685517 30.66273205 0.03093839 32.39808045 -5.17578125 34.046875 C-11.52386232 34.75221734 -15.88040803 33.65949629 -21.17578125 30.046875 C-25.61198947 25.61066678 -26.96341678 21.27670191 -27.55078125 15.109375 C-27.41775339 10.47113691 -25.85439524 7.81141357 -23.17578125 4.046875 C-20.67578125 1.734375 -20.67578125 1.734375 -18.17578125 0.046875 C-17.57765625 -0.365625 -16.97953125 -0.778125 -16.36328125 -1.203125 C-10.80919211 -3.10738414 -5.29636679 -2.20595237 0 0 Z " fill="#37394B" transform="translate(173.17578125,152.953125)"/>
<path d="M0 0 C0.66 0 1.32 0 2 0 C2 17.82 2 35.64 2 54 C1.01 54.495 1.01 54.495 0 55 C-0.16780721 47.32801938 -0.32777413 39.6559046 -0.48217773 31.98364258 C-0.53569002 29.37129984 -0.59102613 26.75899382 -0.64819336 24.14672852 C-0.72984758 20.40128502 -0.80503427 16.65576029 -0.87890625 12.91015625 C-0.90594131 11.73413345 -0.93297638 10.55811066 -0.96083069 9.34645081 C-0.99097511 7.72488319 -0.99097511 7.72488319 -1.02172852 6.07055664 C-1.04171402 5.11347305 -1.06169952 4.15638947 -1.08229065 3.17030334 C-1 1 -1 1 0 0 Z " fill="#2A5044" transform="translate(229,266)"/>
<path d="M0 0 C0 5.28 0 10.56 0 16 C-0.33 16 -0.66 16 -1 16 C-1.495 8.575 -1.495 8.575 -2 1 C-5.64613696 1.14012137 -9.29179789 1.28681398 -12.9375 1.4375 C-14.49887695 1.49647461 -14.49887695 1.49647461 -16.09179688 1.55664062 C-17.57583008 1.61948242 -17.57583008 1.61948242 -19.08984375 1.68359375 C-20.46450806 1.73858032 -20.46450806 1.73858032 -21.86694336 1.79467773 C-23.9820728 1.77003864 -23.9820728 1.77003864 -25 3 C-26.51469448 3.23192865 -28.03754562 3.41215238 -29.5625 3.5625 C-30.38878906 3.64628906 -31.21507812 3.73007813 -32.06640625 3.81640625 C-33.02353516 3.90728516 -33.02353516 3.90728516 -34 4 C-34 4.66 -34 5.32 -34 6 C-34.99 6 -35.98 6 -37 6 C-37 5.34 -37 4.68 -37 4 C-38.85625 4.5259375 -38.85625 4.5259375 -40.75 5.0625 C-43.903292 5.95593273 -45.86774164 6.00881294 -49 5 C-33.26620681 0.34315891 -16.35987496 -3.27197499 0 0 Z " fill="#4D8B65" transform="translate(338,120)"/>
<path d="M0 0 C2.97 0.33 5.94 0.66 9 1 C9.33 2.32 9.66 3.64 10 5 C11.12019531 5.26554687 12.24039062 5.53109375 13.39453125 5.8046875 C14.86726338 6.16114496 16.33991551 6.51793308 17.8125 6.875 C18.55048828 7.04902344 19.28847656 7.22304688 20.04882812 7.40234375 C23.49717037 8.24492511 26.01928362 9.01285575 29 11 C31.32387947 11.39387788 33.65793749 11.73486085 36 12 C36 12.66 36 13.32 36 14 C38.64 14 41.28 14 44 14 C44.495 14.99 44.495 14.99 45 16 C29.42659058 15.25840908 14.55573193 9.45236234 1 2 C0.67 1.34 0.34 0.68 0 0 Z " fill="#40825A" transform="translate(267,363)"/>
<path d="M0 0 C1.32 0.33 2.64 0.66 4 1 C0.8397812 4.52093856 -2.66690091 6.75512633 -6.8125 8.9375 C-7.46613525 9.28304932 -8.11977051 9.62859863 -8.79321289 9.98461914 C-17.89936754 14.65033983 -27.71503 18.37030796 -38 19 C-37 17 -37 17 -33.4375 15.6875 C-30.99849804 14.91501867 -28.55246674 14.16778936 -26.10449219 13.42431641 C-24.71568725 13.0018524 -23.32743717 12.57756081 -21.93969727 12.15161133 C-20.54859657 11.72548396 -19.15589851 11.30452799 -17.76147461 10.8894043 C-13.60818344 9.62137533 -9.77607054 8.15448031 -6 6 C-5.67 5.34 -5.34 4.68 -5 4 C-4.01 4 -3.02 4 -2 4 C-1.34 2.68 -0.68 1.36 0 0 Z " fill="#4C8664" transform="translate(421,268)"/>
<path d="M0 0 C-1.24735567 0.6509259 -2.49801832 1.29551669 -3.75 1.9375 C-4.44609375 2.29714844 -5.1421875 2.65679687 -5.859375 3.02734375 C-8.7123313 4.32366878 -11.49836768 4.90212052 -14.5625 5.5 C-17.12286851 5.97476438 -17.12286851 5.97476438 -20 7 C-20.33 7.66 -20.66 8.32 -21 9 C-22.33333333 9.33333333 -23.66666667 9.66666667 -25 10 C-25.33 10.66 -25.66 11.32 -26 12 C-27.32 11.67 -28.64 11.34 -30 11 C-29.67 10.01 -29.34 9.02 -29 8 C-26.68317248 6.85204933 -24.47415684 5.89916813 -22.0625 5 C-21.38533936 4.74017334 -20.70817871 4.48034668 -20.01049805 4.21264648 C-4.76588092 -1.55993845 -4.76588092 -1.55993845 0 0 Z " fill="#43855E" transform="translate(353,210)"/>
<path d="M0 0 C0.99 0.33 1.98 0.66 3 1 C3.6875 3.0625 3.6875 3.0625 4 5 C2.8553125 5.061875 2.8553125 5.061875 1.6875 5.125 C-1.30399297 5.76102125 -1.30399297 5.76102125 -2.625 8.9375 C-3.07875 9.948125 -3.5325 10.95875 -4 12 C-4.99 12.66 -5.98 13.32 -7 14 C-7.72382467 16.05925139 -7.72382467 16.05925139 -8 18 C-7.34 18.33 -6.68 18.66 -6 19 C-7.65 20.32 -9.3 21.64 -11 23 C-11.66 22.67 -12.32 22.34 -13 22 C-9.27386231 14.15085789 -5.66204736 6.67831227 0 0 Z " fill="#3D8357" transform="translate(244,156)"/>
<path d="M0 0 C9.14645922 3.27364278 19.50459989 10.94490036 25 19 C24.734375 21.76953125 24.734375 21.76953125 24 24 C21.46013071 22.73006535 21.33795007 21.75945215 20.25 19.1875 C18.27233467 15.0395877 16.01556744 13.30681534 12 11 C10.125 9.375 10.125 9.375 9 8 C9 7.34 9 6.68 9 6 C7.88625 5.9071875 7.88625 5.9071875 6.75 5.8125 C3.1814261 4.75814862 2.07754772 3.00090227 0 0 Z " fill="#3A8055" transform="translate(288,279)"/>
<path d="M0 0 C0.66 0.33 1.32 0.66 2 1 C-1.77636503 5.23410625 -4.8577945 6.96252235 -10 9 C-10.66 9.66 -11.32 10.32 -12 11 C-12.78375 11.144375 -13.5675 11.28875 -14.375 11.4375 C-17.27888042 12.05976009 -18.76340401 13.09475156 -21 15 C-21.66 14.67 -22.32 14.34 -23 14 C-17.98815542 9.9086983 -12.80111812 6.6305987 -7.125 3.5625 C-6.45847412 3.19640625 -5.79194824 2.8303125 -5.10522461 2.453125 C-3.4368394 1.56934789 -1.72100505 0.7763458 0 0 Z " fill="#42835B" transform="translate(281,128)"/>
<path d="M0 0 C1.33333333 0.66666667 2.66666667 1.33333333 4 2 C5.010625 2.474375 6.02125 2.94875 7.0625 3.4375 C9.58964206 4.7817245 11.16379396 5.85775961 13 8 C13 7.34 13 6.68 13 6 C14.32 6 15.64 6 17 6 C17 7.98 17 9.96 17 12 C18.32 12.33 19.64 12.66 21 13 C21 13.66 21 14.32 21 15 C13.0773534 12.13315997 6.23789706 6.58127632 0 1 C0 0.67 0 0.34 0 0 Z " fill="#3D8259" transform="translate(299,260)"/>
<path d="M0 0 C0.99 0.33 1.98 0.66 3 1 C-3 7 -3 7 -5.5 8.875 C-7.8614888 10.88226548 -8.88683626 12.1664923 -10 15 C-9.34 15 -8.68 15 -8 15 C-7.67 16.32 -7.34 17.64 -7 19 C-8.98 17.35 -10.96 15.7 -13 14 C-8.88380164 9.08064098 -4.59589638 4.47352044 0 0 Z " fill="#3F7D58" transform="translate(299,235)"/>
<path d="M0 0 C5.58507504 2.69319824 10.9400039 5.40473961 16 9 C14.25 10.125 14.25 10.125 12 11 C8.5023324 9.90697888 6.53981576 7.53981576 4 5 C3.01 4.67 2.02 4.34 1 4 C0.3125 1.9375 0.3125 1.9375 0 0 Z " fill="#398255" transform="translate(410,218)"/>
<path d="M0 0 C1.32 0.66 2.64 1.32 4 2 C3.82701599 4.33528415 3.29774631 5.69177582 1.66796875 7.37890625 C-2.57211538 11 -2.57211538 11 -5 11 C-3.77472971 6.94718288 -2.30119506 3.55639236 0 0 Z " fill="#3E404D" transform="translate(83,215)"/>
<path d="M0 0 C-16.11383525 6.80215176 -16.11383525 6.80215176 -22 5 C-5.88616475 -1.80215176 -5.88616475 -1.80215176 0 0 Z " fill="#3C8059" transform="translate(405,281)"/>
<path d="M0 0 C0.99 0.33 1.98 0.66 3 1 C0.00889776 3.01361785 -2.99364942 5.00924012 -6 7 C-7.423125 7.9590625 -7.423125 7.9590625 -8.875 8.9375 C-11 10 -11 10 -14 9 C-14 8.34 -14 7.68 -14 7 C-8 5 -8 5 -2 3 C-2 2.34 -2 1.68 -2 1 C-1.34 0.67 -0.68 0.34 0 0 Z " fill="#46815B" transform="translate(295,214)"/>
<path d="M0 0 C3.63 0.66 7.26 1.32 11 2 C10.34 3.32 9.68 4.64 9 6 C7.51882199 5.71872579 6.04006751 5.42466268 4.5625 5.125 C3.73878906 4.96257812 2.91507813 4.80015625 2.06640625 4.6328125 C1.38449219 4.42398438 0.70257813 4.21515625 0 4 C-0.33 3.34 -0.66 2.68 -1 2 C-0.67 1.34 -0.34 0.68 0 0 Z " fill="#ECEDF2" transform="translate(155,185)"/>
<path d="M0 0 C6.57142857 5.14285714 6.57142857 5.14285714 8 9 C6.68 9.99 5.36 10.98 4 12 C3.566875 10.2984375 3.566875 10.2984375 3.125 8.5625 C2.75375 7.386875 2.3825 6.21125 2 5 C1.34 4.67 0.68 4.34 0 4 C0 2.68 0 1.36 0 0 Z " fill="#48875F" transform="translate(441,240)"/>
<path d="M0 0 C3.87275826 3.46509949 5.5929184 6.02109587 7 11 C7.99 12.485 7.99 12.485 9 14 C8.67 14.99 8.34 15.98 8 17 C7.03980636 15.41779413 6.08192202 13.83418669 5.125 12.25 C4.59132812 11.36828125 4.05765625 10.4865625 3.5078125 9.578125 C0 3.58031088 0 3.58031088 0 0 Z " fill="#3C8157" transform="translate(232,321)"/>
<path d="M0 0 C1.32 0.66 2.64 1.32 4 2 C3.39671875 2.32613281 2.7934375 2.65226563 2.171875 2.98828125 C0.97304688 3.64376953 0.97304688 3.64376953 -0.25 4.3125 C-1.03890625 4.74175781 -1.8278125 5.17101562 -2.640625 5.61328125 C-4.89727134 6.9396214 -6.93998597 8.38884224 -9 10 C-9.66 9.67 -10.32 9.34 -11 9 C-7.37 6.03 -3.74 3.06 0 0 Z " fill="#41825B" transform="translate(312,225)"/>
<path d="M0 0 C0.99 0.33 1.98 0.66 3 1 C-0.61251516 5.56048012 -3.98797445 9.01665146 -9 12 C-8.67 10.35 -8.34 8.7 -8 7 C-6.68 7 -5.36 7 -4 7 C-3.71125 6.21625 -3.4225 5.4325 -3.125 4.625 C-2 2 -2 2 0 0 Z " fill="#42865D" transform="translate(308,202)"/>
<path d="M0 0 C7.32627475 -0.47266289 12.37384327 0.90133798 19 4 C19 4.66 19 5.32 19 6 C18.29875 5.80664062 17.5975 5.61328125 16.875 5.4140625 C11.26507866 3.874383 5.64989553 2.38582343 0 1 C0 0.67 0 0.34 0 0 Z " fill="#D5EEDE" transform="translate(258,267)"/>
<path d="M0 0 C2.475 0.99 2.475 0.99 5 2 C5 3.32 5 4.64 5 6 C5.99 6.33 6.98 6.66 8 7 C7.67 7.99 7.34 8.98 7 10 C4.36 7.36 1.72 4.72 -1 2 C-0.67 1.34 -0.34 0.68 0 0 Z " fill="#377C53" transform="translate(248,345)"/>
<path d="M0 0 C0.33 0 0.66 0 1 0 C1.20674944 5.78898419 0.59162079 10.42932723 -1 16 C-1.33 16 -1.66 16 -2 16 C-2.19477739 14.37585622 -2.38059458 12.75063577 -2.5625 11.125 C-2.66691406 10.22007812 -2.77132813 9.31515625 -2.87890625 8.3828125 C-3 6 -3 6 -2 4 C-1.34 4 -0.68 4 0 4 C0 2.68 0 1.36 0 0 Z " fill="#40835A" transform="translate(335,144)"/>
<path d="M0 0 C0 3 0 3 -2.1875 5.48046875 C-3.115625 6.37378906 -4.04375 7.26710938 -5 8.1875 C-5.928125 9.08855469 -6.85625 9.98960937 -7.8125 10.91796875 C-8.534375 11.60503906 -9.25625 12.29210937 -10 13 C-10.99 12.67 -11.98 12.34 -13 12 C-8.71 8.04 -4.42 4.08 0 0 Z " fill="#DEF3E4" transform="translate(443,254)"/>
<path d="M0 0 C0.66 0.33 1.32 0.66 2 1 C-3.445 5.455 -3.445 5.455 -9 10 C-9.66 9.34 -10.32 8.68 -11 8 C-7.25 5 -7.25 5 -5 5 C-5 4.34 -5 3.68 -5 3 C-2.625 1.3125 -2.625 1.3125 0 0 Z " fill="#46835F" transform="translate(436,259)"/>
<path d="M0 0 C1.65 0 3.3 0 5 0 C4.06725891 1.12894876 3.12859878 2.25300876 2.1875 3.375 C1.66542969 4.00148437 1.14335937 4.62796875 0.60546875 5.2734375 C-1 7 -1 7 -4 9 C-4 7.35 -4 5.7 -4 4 C-2.35 3.67 -0.7 3.34 1 3 C0.67 2.01 0.34 1.02 0 0 Z " fill="#DBECE1" transform="translate(289,240)"/>
<path d="M0 0 C1.98 0 3.96 0 6 0 C5.01 2.31 4.02 4.62 3 7 C2.34 6.67 1.68 6.34 1 6 C1 5.34 1 4.68 1 4 C0.01 4.33 -0.98 4.66 -2 5 C-2 4.34 -2 3.68 -2 3 C-1.34 3 -0.68 3 0 3 C0 2.01 0 1.02 0 0 Z " fill="#3C3E4E" transform="translate(99,209)"/>
<path d="M0 0 C1.77444057 0.59348861 3.54445553 1.20022001 5.3125 1.8125 C6.29863281 2.14894531 7.28476562 2.48539062 8.30078125 2.83203125 C10.87129759 3.94430967 12.22191977 4.88208191 14 7 C5.73517787 6.02766798 5.73517787 6.02766798 2 4 C0.86328125 1.92578125 0.86328125 1.92578125 0 0 Z " fill="#407F56" transform="translate(274,272)"/>
<path d="M0 0 C0.33 0.66 0.66 1.32 1 2 C0.06421005 4.35981813 -0.93347808 6.69631264 -2 9 C-3.5625 7.25 -3.5625 7.25 -5 5 C-4.6875 2.75 -4.6875 2.75 -4 1 C-2.68 0.67 -1.36 0.34 0 0 Z " fill="#398556" transform="translate(327,175)"/>
<path d="M0 0 C0.66 1.32 1.32 2.64 2 4 C1.34 4 0.68 4 0 4 C0 4.66 0 5.32 0 6 C0.99 6 1.98 6 3 6 C3 7.32 3 8.64 3 10 C2.34 10 1.68 10 1 10 C0.67 10.66 0.34 11.32 0 12 C-1.88059033 10.11940967 -1.12361218 7.50109962 -1.1328125 5.0078125 C-1 3 -1 3 0 0 Z " fill="#434551" transform="translate(147,161)"/>
<path d="M0 0 C2.97 1.65 5.94 3.3 9 5 C8.01 5.66 7.02 6.32 6 7 C4.02 6.01 2.04 5.02 0 4 C0 2.68 0 1.36 0 0 Z " fill="#E6F5EA" transform="translate(312,271)"/>
<path d="M0 0 C4.42679007 1.47559669 4.91432696 3.90057368 7 8 C7 8.66 7 9.32 7 10 C6.01 10 5.02 10 4 10 C1.125 3.375 1.125 3.375 0 0 Z " fill="#42805B" transform="translate(317,306)"/>
<path d="M0 0 C0.66 0 1.32 0 2 0 C1.52794881 4.24846075 -0.88877522 6.26819288 -4 9 C-4.66 9 -5.32 9 -6 9 C-6 7 -6 7 -4.6875 5.625 C-4.130625 5.08875 -3.57375 4.5525 -3 4 C-2.484375 3.278125 -1.96875 2.55625 -1.4375 1.8125 C-0.7259375 0.9153125 -0.7259375 0.9153125 0 0 Z " fill="#377E53" transform="translate(443,250)"/>
<path d="M0 0 C0.33 0.66 0.66 1.32 1 2 C-0.7089149 5.84505853 -2.79076938 9.42315043 -5 13 C-5.99 12.67 -6.98 12.34 -8 12 C-4 6 -4 6 0 0 Z " fill="#DDF3E4" transform="translate(324,184)"/>
<path d="M0 0 C0.37125 0.45375 0.7425 0.9075 1.125 1.375 C3.54264685 3.47029394 5.95430602 4.12013285 9 5 C9 5.99 9 6.98 9 8 C5.40608886 6.66511872 2.24509304 5.03977277 -1 3 C-0.67 2.01 -0.34 1.02 0 0 Z " fill="#DFF1E2" transform="translate(286,274)"/>
<path d="M0 0 C0.66 0 1.32 0 2 0 C0.22054913 4.04420651 -2.39529673 7.46078487 -5 11 C-5.66 10.01 -6.32 9.02 -7 8 C-6.34 8 -5.68 8 -5 8 C-5 7.34 -5 6.68 -5 6 C-4.34 6 -3.68 6 -3 6 C-2.690625 5.195625 -2.38125 4.39125 -2.0625 3.5625 C-1 1 -1 1 0 0 Z " fill="#43835D" transform="translate(317,192)"/>
<path d="M0 0 C3.3 1.65 6.6 3.3 10 5 C8.02 5.99 8.02 5.99 6 7 C5.34 6.34 4.68 5.68 4 5 C3.01 4.67 2.02 4.34 1 4 C0.67 2.68 0.34 1.36 0 0 Z " fill="#488460" transform="translate(410,218)"/>
<path d="M0 0 C1.0169313 2.65498232 1.13022151 3.69155375 0.00390625 6.359375 C-0.47175781 7.14828125 -0.94742188 7.9371875 -1.4375 8.75 C-2.14712891 9.94882813 -2.14712891 9.94882813 -2.87109375 11.171875 C-3.24363281 11.77515625 -3.61617187 12.3784375 -4 13 C-5.40318642 8.79044073 -3.88224523 6.90391604 -2 3 C-1.34 2.01 -0.68 1.02 0 0 Z " fill="#E4F7E8" transform="translate(237,162)"/>
<path d="M0 0 C0.66 0.33 1.32 0.66 2 1 C0.55609075 4.80666984 -1.34952803 6.26602582 -5 8 C-5.66 7.67 -6.32 7.34 -7 7 C-4.69 4.69 -2.38 2.38 0 0 Z " fill="#478561" transform="translate(255,144)"/>
<path d="M0 0 C1.9375 0.625 1.9375 0.625 4 2 C4.75 5.125 4.75 5.125 5 8 C2.5 5.6875 2.5 5.6875 0 3 C0 2.01 0 1.02 0 0 Z " fill="#3F815A" transform="translate(242,338)"/>
<path d="M0 0 C2.875 -0.125 2.875 -0.125 6 0 C6.66 0.66 7.32 1.32 8 2 C7.67 2.99 7.34 3.98 7 5 C3.535 3.02 3.535 3.02 0 1 C0 0.67 0 0.34 0 0 Z " fill="#41875E" transform="translate(320,275)"/>
<path d="M0 0 C1.32 0.33 2.64 0.66 4 1 C2.66529737 5.00410788 0.44000697 5.70666202 -3 8 C-1.125 2.25 -1.125 2.25 0 0 Z " fill="#EEEEF2" transform="translate(104,210)"/>
<path d="M0 0 C3.0916909 2.52956528 3.90931332 5.22454612 5 9 C3.0625 8.4375 3.0625 8.4375 1 7 C0.25 3.375 0.25 3.375 0 0 Z " fill="#E3F4E8" transform="translate(231,323)"/>
<path d="M0 0 C1.32 0.33 2.64 0.66 4 1 C1.16569547 4.2542015 -0.68607774 5.5206753 -5 6 C-5 5.34 -5 4.68 -5 4 C-4.01 4 -3.02 4 -2 4 C-1.34 2.68 -0.68 1.36 0 0 Z " fill="#3B8158" transform="translate(421,268)"/>
<path d="M0 0 C1.0326802 2.78823655 1.04509293 3.8677274 0.0625 6.75 C-0.288125 7.4925 -0.63875 8.235 -1 9 C-1.99 8.67 -2.98 8.34 -4 8 C-4 6.68 -4 5.36 -4 4 C-3.01 3.67 -2.02 3.34 -1 3 C-0.67 2.01 -0.34 1.02 0 0 Z " fill="#E9E9EF" transform="translate(118,222)"/>
<path d="M0 0 C-3.12432397 2.52349243 -6.38060496 4.27256146 -10 6 C-10 5.34 -10 4.68 -10 4 C-9.34 4 -8.68 4 -8 4 C-7.67 3.01 -7.34 2.02 -7 1 C-4.53721199 -0.231394 -2.7204945 -0.07159196 0 0 Z " fill="#E3F6E9" transform="translate(275,131)"/>
<path d="M0 0 C2 3 2 3 2 5 C3.98 5 5.96 5 8 5 C8 5.33 8 5.66 8 6 C5.03 6 2.06 6 -1 6 C-0.67 4.02 -0.34 2.04 0 0 Z " fill="#55555E" transform="translate(52,307)"/>
<path d="M0 0 C2.97 0.33 5.94 0.66 9 1 C9 1.33 9 1.66 9 2 C7.3603125 2.2165625 7.3603125 2.2165625 5.6875 2.4375 C2.06877013 2.88288104 2.06877013 2.88288104 -1 4 C-0.67 2.68 -0.34 1.36 0 0 Z " fill="#398253" transform="translate(253,267)"/>
<path d="M0 0 C3.0831351 1.19899698 6.06279492 2.47700477 9 4 C7.02 4.99 7.02 4.99 5 6 C3.35 4.02 1.7 2.04 0 0 Z " fill="#468761" transform="translate(292,254)"/>
<path d="M0 0 C-7.71428571 4 -7.71428571 4 -12 4 C-11.67 3.01 -11.34 2.02 -11 1 C-7.27569643 0.30710631 -3.78916254 -0.11144596 0 0 Z " fill="#E0F5E7" transform="translate(296,123)"/>
<path d="M0 0 C2.64 1.98 5.28 3.96 8 6 C5 7 5 7 3 7 C0 2.61538462 0 2.61538462 0 0 Z " fill="#E7F6E9" transform="translate(292,255)"/>
<path d="M0 0 C4 0 4 0 6 1 C6 1.99 6 2.98 6 4 C4.68 4 3.36 4 2 4 C2 3.34 2 2.68 2 2 C1.01 2.33 0.02 2.66 -1 3 C-0.67 2.01 -0.34 1.02 0 0 Z " fill="#3D4050" transform="translate(146,255)"/>
</svg>
